<svg xmlns="http://www.w3.org/2000/svg" viewBox="0 0 512 512">
  <defs>
    <linearGradient id="bg" x1="0" y1="0" x2="1" y2="1">
      <stop offset="0" stop-color="#7a4ecf"/>
      <stop offset="1" stop-color="#1a1140"/>
    </linearGradient>
  </defs>
  <rect width="512" height="512" rx="108" fill="url(#bg)"/>
  <polygon points="150,120 196,196 120,208" fill="#e0a83c"/>
  <polygon points="362,120 392,208 316,196" fill="#e0a83c"/>
  <ellipse cx="256" cy="300" rx="158" ry="168" fill="#f5c96a"/>
  <ellipse cx="118" cy="316" rx="44" ry="88" fill="#e0a83c" transform="rotate(18 118 316)"/>
  <ellipse cx="394" cy="316" rx="44" ry="88" fill="#e0a83c" transform="rotate(-18 394 316)"/>
  <circle cx="200" cy="256" r="62" fill="#fff8e8"/>
  <circle cx="312" cy="256" r="62" fill="#fff8e8"/>
  <circle cx="204" cy="260" r="28" fill="#241545"/>
  <circle cx="308" cy="260" r="28" fill="#241545"/>
  <circle cx="214" cy="250" r="9" fill="#fff"/>
  <circle cx="318" cy="250" r="9" fill="#fff"/>
  <polygon points="256,296 232,332 280,332" fill="#e8862d"/>
  <path d="M186 372 Q256 420 326 372" stroke="#e0a83c" stroke-width="14" fill="none" stroke-linecap="round"/>
</svg>
